<svg clip-rule="evenodd" fill-rule="evenodd" stroke-linejoin="round" stroke-miterlimit="2" viewBox="0 0 1024 1024" xmlns="http://www.w3.org/2000/svg" fill="currentColor"><path d="m0 0h1024v1024h-1024z" fill="none"/><path d="m583.404 728.719h-389.762c0-107.63 87.251-194.881 194.881-194.881s194.881 87.251 194.881 194.881z" transform="matrix(0 -.492608 .492608 0 -182.973 319.39)"/><path d="m583.404 728.719h-389.762c0-107.63 87.251-194.881 194.881-194.881s194.881 87.251 194.881 194.881z" transform="matrix(0 -.492608 .492608 0 73.0271 1087.39)"/><path d="m583.404 728.719h-389.762c0-107.63 87.251-194.881 194.881-194.881s194.881 87.251 194.881 194.881z" transform="matrix(0 .492608 -.492608 0 438.973 192.61)"/><path d="m583.404 728.719h-389.762c0-107.63 87.251-194.881 194.881-194.881s194.881 87.251 194.881 194.881z" transform="matrix(0 -.492608 .492608 0 -182.973 831.39)"/><path d="m583.404 728.719h-389.762c0-107.63 87.251-194.881 194.881-194.881s194.881 87.251 194.881 194.881z" transform="matrix(0 .492608 -.492608 0 438.973 704.61)"/><path d="m583.404 728.719h-389.762c0-107.63 87.251-194.881 194.881-194.881s194.881 87.251 194.881 194.881z" transform="matrix(0 .492608 -.492608 0 694.973 -63.3896)"/><path d="m583.404 728.719h-389.762c0-107.63 87.251-194.881 194.881-194.881s194.881 87.251 194.881 194.881z" transform="matrix(0 -.492608 .492608 0 73.0271 575.39)"/><path d="m583.404 728.719h-389.762c0-107.63 87.251-194.881 194.881-194.881s194.881 87.251 194.881 194.881z" transform="matrix(0 .492608 -.492608 0 694.973 448.61)"/><path d="m583.404 728.719h-389.762c0-107.63 87.251-194.881 194.881-194.881s194.881 87.251 194.881 194.881z" transform="matrix(0 -.492608 .492608 0 585.027 1087.39)"/><path d="m583.404 728.719h-389.762c0-107.63 87.251-194.881 194.881-194.881s194.881 87.251 194.881 194.881z" transform="matrix(0 .492608 -.492608 0 1206.97 -63.3896)"/><path d="m583.404 728.719h-389.762c0-107.63 87.251-194.881 194.881-194.881s194.881 87.251 194.881 194.881z" transform="matrix(0 -.492608 .492608 0 585.027 575.39)"/><path d="m583.404 728.719h-389.762c0-107.63 87.251-194.881 194.881-194.881s194.881 87.251 194.881 194.881z" transform="matrix(0 .492608 -.492608 0 1206.97 448.61)"/><path d="m583.404 728.719h-389.762c0-107.63 87.251-194.881 194.881-194.881s194.881 87.251 194.881 194.881z" transform="matrix(0 -.492608 .492608 0 329.027 319.39)"/><path d="m583.404 728.719h-389.762c0-107.63 87.251-194.881 194.881-194.881s194.881 87.251 194.881 194.881z" transform="matrix(0 .492608 -.492608 0 950.973 192.61)"/><path d="m583.404 728.719h-389.762c0-107.63 87.251-194.881 194.881-194.881s194.881 87.251 194.881 194.881z" transform="matrix(0 -.492608 .492608 0 329.027 831.39)"/><path d="m583.404 728.719h-389.762c0-107.63 87.251-194.881 194.881-194.881s194.881 87.251 194.881 194.881z" transform="matrix(0 .492608 -.492608 0 950.973 704.61)"/></svg>
